<svg width="30" height="30" viewBox="0 0 30 30" fill="none" xmlns="http://www.w3.org/2000/svg">
<g opacity="0.3" clip-path="url(#clip0_1085_955)">
<path d="M2.26805 24.4726L3.59109 26.7577C3.86602 27.2389 4.26117 27.617 4.72512 27.8919C6.05402 26.2051 6.97887 24.9106 7.50012 24.0086C8.02898 23.0933 8.67902 21.6614 9.45023 19.7131C7.3718 19.4395 5.7968 19.3027 4.72523 19.3027C3.69668 19.3027 2.12168 19.4395 0 19.7131C0 20.2457 0.137461 20.7784 0.412383 21.2595L2.26805 24.4726Z" fill="#0066DA"/>
<path d="M25.2753 27.8919C25.7393 27.617 26.1345 27.2389 26.4093 26.7579L26.9591 25.8129L29.5881 21.2595C29.858 20.7888 30.0001 20.2557 30.0004 19.7131C27.8664 19.4395 26.2943 19.3027 25.2839 19.3027C24.1981 19.3027 22.6259 19.4395 20.5674 19.7131C21.3295 21.672 21.9709 23.1039 22.4918 24.0086C23.0172 24.9214 23.945 26.2157 25.2753 27.8919Z" fill="#EA4335"/>
<path d="M15.0005 10.0911C16.538 8.2343 17.5976 6.80238 18.1792 5.79563C18.6476 4.98492 19.1631 3.69047 19.7256 1.91238C19.2617 1.63746 18.7291 1.5 18.1792 1.5H11.8218C11.272 1.5 10.7395 1.65469 10.2754 1.91238C10.9909 3.95168 11.5982 5.40305 12.097 6.26637C12.6482 7.22051 13.6161 8.49539 15.0005 10.0911Z" fill="#00832D"/>
<path d="M20.5499 19.7134H9.4501L4.7251 27.8921C5.18893 28.1671 5.72154 28.3045 6.27139 28.3045H23.7286C24.2784 28.3045 24.8112 28.1498 25.275 27.892L20.55 19.7134H20.5499Z" fill="#2684FC"/>
<path d="M15.0001 10.0907L10.2751 1.91211C9.81105 2.18703 9.4159 2.56496 9.14098 3.04613L0.412383 18.1665C0.142515 18.6372 0.00035654 19.1703 0 19.7129H9.45023L15.0002 10.0907H15.0001Z" fill="#00AC47"/>
<path d="M25.2239 10.6064L20.8595 3.04613C20.5847 2.56496 20.1894 2.18703 19.7255 1.91211L15.0005 10.0909L20.5503 19.713H29.9834C29.9834 19.1803 29.8459 18.6478 29.571 18.1666L25.2239 10.6064Z" fill="#FFBA00"/>
</g>
<defs>
<clipPath id="clip0_1085_955">
<rect width="30" height="30" fill="white"/>
</clipPath>
</defs>
</svg>
