<svg width="101" height="30" viewBox="0 0 101 30" fill="none" xmlns="http://www.w3.org/2000/svg">
<g clip-path="url(#clip0_551_4824)">
<path d="M5.3248 0.185063C3.27417 1.08424 1.02019 3.6213 0.308246 6.80828C-0.593506 10.8449 3.15836 12.5525 3.46634 11.9933C3.82849 11.3356 2.79405 11.1133 2.58108 9.01862C2.30588 6.31328 3.50736 3.29047 5.01958 1.9641C5.30027 1.71753 5.28712 2.06068 5.28712 2.69499C5.28712 3.82945 5.22725 14.0138 5.22725 16.1393C5.22725 19.0152 5.11379 19.9234 4.90985 20.821C4.70355 21.7302 4.37143 22.3448 4.62287 22.5815C4.90396 22.8462 6.10407 22.2164 6.79874 21.2015C7.63179 19.9842 7.92348 18.522 7.97588 16.9347C8.03909 15.0209 8.03634 11.9839 8.03909 10.2517C8.04145 8.66315 8.06461 4.0113 8.01239 1.21472C7.99964 0.528419 6.18239 -0.19117 5.3248 0.185063Z" fill="#656566"/>
<path d="M78.1368 13.6449C78.0707 15.1402 77.7544 16.3087 77.3621 17.1331C76.6024 18.7291 75.0262 19.2245 74.3569 16.9305C73.9922 15.68 73.9751 13.5915 74.2371 11.8463C74.5041 10.0687 75.2496 8.72612 76.4837 8.84715C77.7011 8.96695 78.2709 10.6089 78.1368 13.6451V13.6449ZM57.6148 22.9215C57.5983 25.4057 57.2248 27.5838 56.4239 28.2167C55.2878 29.1138 53.7609 28.4406 54.0771 26.6279C54.3568 25.0237 55.68 23.3854 57.6181 21.3837C57.6181 21.3837 57.6221 21.8402 57.6148 22.9215ZM57.3047 13.6303C57.2352 14.9922 56.8979 16.3601 56.5299 17.1331C55.7703 18.7291 54.1827 19.228 53.5247 16.9305C53.0748 15.3606 53.1826 13.3293 53.405 12.0491C53.6939 10.3882 54.3943 8.84736 55.6515 8.84736C56.874 8.84736 57.477 10.2514 57.3047 13.6303ZM45.4164 13.6098C45.3418 15.0518 45.0731 16.2574 44.6418 17.1331C43.8614 18.7182 42.3174 19.2208 41.6367 16.9305C41.1457 15.2791 41.3128 13.0274 41.5169 11.811C41.82 10.0058 42.5789 8.72612 43.7635 8.84736C44.9803 8.97188 45.5717 10.6089 45.4164 13.6098ZM99.897 15.2943C99.5997 15.2943 99.4638 15.6152 99.3513 16.1552C98.9621 18.0341 98.5525 18.458 98.0246 18.458C97.4348 18.458 96.9048 17.528 96.7684 15.666C96.6614 14.2017 96.6787 11.5063 96.8155 8.82496C96.8436 8.27407 96.6983 7.72893 95.2868 7.19222C94.6795 6.96126 93.7966 6.62119 93.3569 7.73201C92.115 10.8705 91.6289 13.3622 91.5145 14.3739C91.5086 14.4263 91.4472 14.4372 91.4366 14.3148C91.3636 13.5041 91.2008 12.0308 91.1804 8.93592C91.1765 8.33201 91.0544 7.81811 90.4176 7.39729C90.0045 7.124 88.75 6.64112 88.2983 7.21585C87.9069 7.68558 87.4535 8.9501 86.9826 10.4493C86.5998 11.6678 86.3333 12.4917 86.3333 12.4917C86.3333 12.4917 86.3384 9.20448 86.3429 7.95743C86.3448 7.48708 86.0367 7.3303 85.9436 7.30195C85.5255 7.17496 84.7011 6.9627 84.3513 6.9627C83.9195 6.9627 83.8139 7.21503 83.8139 7.58325C83.8139 7.63153 83.7458 11.9113 83.7458 14.9039C83.7458 15.0339 83.7458 15.1757 83.7464 15.3265C83.5077 16.702 82.7333 18.569 81.8912 18.569C81.048 18.569 80.6503 17.7886 80.6503 14.2209C80.6503 12.1395 80.71 11.2344 80.7392 9.72907C80.7563 8.86195 80.7893 8.19619 80.7873 8.04516C80.781 7.58181 80.0159 7.34818 79.6596 7.26188C79.3018 7.17496 78.9909 7.14106 78.7481 7.15564C78.4044 7.17619 78.1612 7.41188 78.1612 7.73653C78.1612 7.91078 78.1631 8.2416 78.1631 8.2416C77.7205 7.51338 77.0085 7.00667 76.5349 6.85975C75.259 6.46318 73.9278 6.81455 72.9236 8.28558C72.1255 9.45414 71.6444 10.778 71.4549 12.6798C71.3166 14.0702 71.3617 15.48 71.6078 16.6724C71.3105 18.0179 70.7587 18.569 70.1543 18.569C69.2769 18.569 68.6409 17.0702 68.7147 14.4775C68.7634 12.7722 69.0895 11.5755 69.4457 9.84414C69.5977 9.10606 69.4742 8.71975 69.1646 8.34948C68.8806 8.00982 68.2754 7.83619 67.4059 8.04948C66.7864 8.20174 65.9005 8.36551 65.0901 8.49126C65.0901 8.49126 65.1391 8.28681 65.1792 7.92681C65.39 6.03845 63.4297 6.19153 62.8041 6.79462C62.4309 7.15482 62.1767 7.57955 62.0804 8.34311C61.9273 9.55503 62.8714 10.1267 62.8714 10.1267C62.5619 11.6111 61.8024 13.55 61.0184 14.9519C60.5986 15.703 60.2775 16.2596 59.8627 16.8512C59.8492 14.4771 59.864 12.103 59.9071 9.72927C59.9241 8.86215 59.9573 8.21407 59.9555 8.06284C59.9508 7.72421 59.7618 7.59599 59.3686 7.43407C59.0208 7.29064 58.6098 7.1916 58.1832 7.15667C57.645 7.11311 57.3208 7.41167 57.3294 7.7651C57.331 7.83188 57.331 8.2416 57.331 8.2416C56.8883 7.51338 56.1764 7.00667 55.7027 6.85975C54.4269 6.46318 53.0956 6.81455 52.0914 8.28558C51.2935 9.45414 50.771 11.0943 50.6228 12.6654C50.485 14.1294 50.5103 15.3736 50.6983 16.4219C50.4956 17.4715 49.9122 18.5692 49.2529 18.5692C48.4096 18.5692 47.9299 17.7886 47.9299 14.2209C47.9299 12.1395 47.9896 11.2344 48.019 9.72907C48.0361 8.86215 48.0689 8.19619 48.0671 8.04516C48.0608 7.58181 47.2955 7.34838 46.9392 7.26188C46.5667 7.17147 46.2449 7.13859 45.9978 7.1577C45.672 7.18297 45.4427 7.48852 45.4427 7.7164V8.2416C45.0001 7.51338 44.2881 7.00667 43.8145 6.85975C42.5386 6.46318 41.2148 6.8203 40.2032 8.28558C39.5436 9.24085 39.0095 10.2999 38.7347 12.6444C38.6552 13.3219 38.6201 13.9566 38.6248 14.5494C38.3618 16.2335 37.1997 18.1745 36.2495 18.1745C35.6934 18.1745 35.1636 17.0452 35.1636 14.6388C35.1636 11.4333 35.3533 6.86921 35.3854 6.42948C35.3854 6.42948 36.5861 6.40811 36.8186 6.40523C37.4176 6.39825 37.96 6.41325 38.7579 6.3703C39.1579 6.34914 39.5434 4.84564 39.1304 4.65969C38.9432 4.57544 37.6204 4.50188 37.0959 4.49016C36.655 4.47989 35.4275 4.38455 35.4275 4.38455C35.4275 4.38455 35.5376 1.35516 35.5633 1.03523C35.5849 0.768315 35.2551 0.631055 35.0663 0.547836C34.6066 0.344411 34.1953 0.246808 33.708 0.141603C33.0343 -0.00387653 32.7289 0.138521 32.6692 0.733384C32.5793 1.63647 32.5328 4.2816 32.5328 4.2816C32.0385 4.2816 30.35 4.18051 29.8558 4.18051C29.3965 4.18051 28.9006 6.24845 29.5358 6.27393C30.2664 6.30352 31.5398 6.32941 32.3838 6.35571C32.3838 6.35571 32.3461 10.995 32.3461 12.4276C32.3461 12.5797 32.3469 12.7266 32.3477 12.869C31.8831 15.4036 30.2468 16.7729 30.2468 16.7729C30.5982 15.096 29.8803 13.8366 28.5874 12.7706C28.111 12.3779 27.1706 11.6343 26.1184 10.8193C26.1184 10.8193 26.7277 10.1906 27.2683 8.92564C27.6511 8.02934 27.6678 7.00421 26.7277 6.77797C25.1747 6.404 23.8943 7.59804 23.5123 8.87284C23.2163 9.86037 23.3741 10.5929 23.954 11.354C23.9962 11.4097 24.0423 11.4666 24.0894 11.5237C23.739 12.231 23.2573 13.1834 22.8494 13.9219C21.7172 15.9726 20.862 17.5942 20.2156 17.5942C19.699 17.5942 19.7059 15.9475 19.7059 14.4058C19.7059 13.0767 19.7997 11.0785 19.8747 9.00989C19.8994 8.32564 19.5724 7.93585 19.0248 7.58284C18.6918 7.36832 17.9815 6.94667 17.5701 6.94667C16.9541 6.94667 15.1773 7.03441 13.4986 12.118C13.287 12.7587 12.8713 13.9262 12.8713 13.9262L12.9072 7.81297C12.9072 7.66955 12.8342 7.53105 12.6671 7.43633C12.3843 7.27544 11.6288 6.94667 10.9569 6.94667C10.6369 6.94667 10.477 7.10242 10.477 7.41311L10.4185 16.9774C10.4185 17.7041 10.4365 18.5519 10.5052 18.9226C10.5735 19.2937 10.6844 19.5958 10.8214 19.7754C10.9586 19.9548 11.117 20.0918 11.3783 20.1481C11.6215 20.2005 12.9531 20.3795 13.0224 19.8469C13.1053 19.2082 13.1086 18.5178 13.8078 15.9424C14.8964 11.9326 16.3156 9.97647 16.983 9.28153C17.0997 9.1603 17.2328 9.1529 17.2264 9.3516C17.1981 10.2306 17.0978 12.4276 17.0305 14.2934C16.8497 19.2876 17.7175 20.2132 18.9578 20.2132C19.9067 20.2132 21.2442 19.2263 22.6779 16.7281C23.4767 15.3359 24.2719 13.9414 25.0634 12.5445C25.4978 12.9656 25.9856 13.4187 26.4727 13.9028C27.6053 15.028 27.9771 16.0973 27.7304 17.1115C27.5419 17.8868 26.8312 18.6859 25.5665 17.9094C25.1978 17.6828 25.0404 17.5075 24.6698 17.2521C24.4708 17.115 24.1667 17.0739 23.9844 17.2178C23.5109 17.5913 23.2401 18.0668 23.0854 18.6553C22.935 19.228 23.4829 19.5306 24.0509 19.7955C24.5399 20.0234 25.591 20.2299 26.2611 20.2533C28.8728 20.3448 30.965 18.9333 32.4215 15.2924C32.6822 18.4369 33.7916 20.2161 35.7193 20.2161C37.0082 20.2161 38.3003 18.4722 38.8655 16.7567C39.0276 17.4559 39.2678 18.0641 39.578 18.5785C41.0633 21.0422 43.9448 20.512 45.3923 18.4198C45.8398 17.7734 45.9079 17.5412 45.9079 17.5412C46.1191 19.5165 47.6388 20.2067 48.5087 20.2067C49.4833 20.2067 50.4893 19.7244 51.1946 18.0625C51.2772 18.2429 51.3675 18.4153 51.466 18.5785C52.9514 21.0422 55.8331 20.512 57.2805 18.4198C57.3488 18.3216 57.4081 18.2328 57.4597 18.1527L57.5021 19.4503L56.1695 20.7298C53.9357 22.873 52.239 24.4983 52.1142 26.3914C51.9552 28.8052 53.8243 29.7023 55.2403 29.8198C56.7413 29.9445 58.0292 29.0758 58.8194 27.86C59.5151 26.7896 59.9705 24.4862 59.9369 22.2113C59.9237 21.3002 59.9016 20.1419 59.8845 18.9002C60.6687 17.947 61.5522 16.7421 62.3656 15.3321C63.252 13.7953 64.2021 11.7315 64.6885 10.1252C64.6885 10.1252 65.5139 10.1328 66.3948 10.0724C66.6765 10.0531 66.7575 10.1135 66.7053 10.3295C66.6425 10.5908 65.5924 14.8305 66.5509 17.6548C67.2067 19.5884 68.6853 20.2102 69.5619 20.2102C70.5883 20.2102 71.57 19.3989 72.096 18.1944C72.1596 18.3286 72.2258 18.4585 72.2982 18.5787C73.7835 21.0424 76.655 20.5087 78.1127 18.4198C78.4417 17.9485 78.6283 17.5412 78.6283 17.5412C78.941 19.5857 80.4599 20.2172 81.3298 20.2172C82.2359 20.2172 83.0961 19.8282 83.7937 18.0999C83.8231 18.861 83.8689 19.4832 83.9413 19.6792C83.9854 19.7994 84.243 19.9498 84.4302 20.0226C85.2594 20.3443 86.1046 20.1923 86.4175 20.1261C86.6342 20.0801 86.8032 19.898 86.8263 19.4283C86.8872 18.1944 86.8499 16.1213 87.2071 14.5804C87.8068 11.9949 88.3664 10.9919 88.6318 10.4955C88.7804 10.2171 88.9478 10.1713 88.9539 10.4657C88.9665 11.0616 88.9947 12.8109 89.2271 15.1615C89.3979 16.89 89.6256 17.9119 89.8009 18.2355C90.301 19.1602 90.9184 19.2039 91.4213 19.2039C91.7412 19.2039 92.4102 19.1115 92.3503 18.523C92.3211 18.2361 92.3721 16.4632 92.9635 13.9159C93.3496 12.2524 93.9934 10.7495 94.2256 10.1998C94.3114 9.99722 94.3513 10.1569 94.3497 10.1881C94.3008 11.3337 94.1911 15.0808 94.6369 17.1302C95.2414 19.9065 96.9896 20.2172 97.5989 20.2172C98.8995 20.2172 99.9632 19.1815 100.321 16.4565C100.408 15.8006 100.28 15.2943 99.897 15.2943Z" fill="#656566"/>
</g>
<defs>
<clipPath id="clip0_551_4824">
<rect width="100.5" height="30" fill="white"/>
</clipPath>
</defs>
</svg>
