<svg width="163" height="25" viewBox="0 0 163 25" fill="none" xmlns="http://www.w3.org/2000/svg">
<g clip-path="url(#clip0_1114_1348)">
<path fill-rule="evenodd" clip-rule="evenodd" d="M157.232 18.8585V13.487H154.796V13.6865C154.753 15.8665 154.397 17.4338 153.955 18.8585H157.232ZM161.564 18.8585H163.174L163.074 24.8283H159.085V22.335H152.559L152.488 24.8283H148.47V18.8585H149.866C150.564 16.8496 150.906 14.8977 150.906 10.6516V10.0533H161.564V18.8585ZM80.6785 9.29815C77.7577 9.29815 76.3756 8.05855 76.0335 5.90706L79.3248 5.43701C79.4817 6.24914 79.8805 6.76201 80.6785 6.76201C81.4765 6.76201 81.8753 6.24914 82.032 5.43701L85.3233 5.90706C84.9815 8.05855 83.585 9.29815 80.6785 9.29815ZM65.8749 18.944C67.4422 18.944 68.4395 17.7173 68.4395 16.2083C68.4395 14.7279 67.3425 13.4727 65.8321 13.4727C64.265 13.4727 63.2677 14.6997 63.2677 16.2083C63.2677 17.689 64.3504 18.944 65.8749 18.944ZM65.8749 9.78261C69.793 9.78261 72.6283 12.6749 72.6283 16.2083C72.6283 19.6992 69.7786 22.6341 65.8321 22.6341C61.8996 22.6341 59.0642 19.742 59.0642 16.2083C59.0642 12.7178 61.9284 9.78261 65.8749 9.78261ZM140.163 19.001C141.545 19.001 142.657 17.8468 142.657 16.18C142.657 14.5557 141.545 13.3874 140.163 13.3874C138.753 13.3874 137.641 14.527 137.641 16.2226C137.641 17.8468 138.753 19.001 140.163 19.001ZM142.571 10.0533H146.874V22.335H142.571V20.6966C141.731 21.7223 140.69 22.6057 138.853 22.6057C135.917 22.6057 133.396 20.1835 133.396 16.2085C133.396 12.2191 135.917 9.78248 138.824 9.78248C140.69 9.78248 141.773 10.6233 142.571 11.5493V10.0533ZM78.6125 16.2369L82.716 10.0533H86.6912V22.335H82.5162V18.3312C82.5162 17.5619 82.5162 16.8496 82.5306 16.1513L78.4274 22.335H74.4521V10.0533H78.6269V14.0001C78.6269 14.6127 78.6269 15.4961 78.6125 16.2369ZM121.043 12.4184L121.071 10.0533H131.643V22.335H127.326V13.487H124.847V13.8719C124.719 21.2949 123.066 22.4917 120.459 22.4917C120.045 22.4917 119.233 22.4204 118.692 22.335H113.577L110.186 17.0917V22.335H105.883V10.0533H110.186V14.7835L113.477 10.0533H118.449L114.061 15.6385L118.563 22.1924L118.763 18.4167C119.233 18.4739 119.347 18.4739 119.461 18.4739C120.231 18.4739 121.028 17.9182 121.043 12.4184ZM97.9185 18.4881C99.4289 18.4881 100.469 17.8327 101.338 16.5789L104.658 19.001C103.076 21.1381 101.081 22.6341 97.6049 22.6341C92.9885 22.6341 89.4554 19.2005 89.4554 14.3562C89.4554 9.83958 92.9603 6.12102 97.8187 6.12102C100.825 6.12102 103.019 7.43166 104.572 9.65444L101.309 12.0336C100.44 10.8228 99.4002 10.2527 98.018 10.2527C95.696 10.2527 94.0858 12.0765 94.0858 14.3562C94.0858 16.8638 95.767 18.4881 97.9185 18.4881ZM52.3108 6.39166H55.1462L58.1952 22.335H53.8782L52.4819 14.5555L48.5923 22.8622H48.0935L44.1895 14.6271L42.7935 22.335H38.5049L41.5539 6.39166H44.3747C44.3747 6.39166 46.8254 11.6632 47.3101 12.6748C47.7945 13.6865 48.3499 14.983 48.3499 14.983C48.3499 14.983 49.0623 13.3162 49.4185 12.6038C49.7749 11.8914 52.3108 6.39166 52.3108 6.39166Z" fill="#2855B0"/>
<path fill-rule="evenodd" clip-rule="evenodd" d="M5.33594 23.6334C9.22307 23.6334 12.1619 18.5725 14.7966 13.0473C16.0647 10.3685 17.2471 7.56186 18.4295 5.1824C19.728 2.54305 21.0599 0.680176 22.6896 0.680176C24.0711 0.680176 25.3711 1.79577 26.6649 3.54379C29.3473 7.173 31.6659 13.319 31.6659 17.35C31.6659 20.7267 29.9278 23.6334 26.3656 23.6334H5.33594Z" fill="#63CDFF"/>
<path fill-rule="evenodd" clip-rule="evenodd" d="M14.7965 13.0473C12.1264 7.66435 10.9175 3.71484 8.55588 3.71484C7.08831 3.71484 5.43559 5.25371 3.93955 7.77549C2.33682 10.4515 1.07568 14.2275 1.07568 18.2906C1.07568 21.499 2.64598 23.6334 5.33583 23.6334C9.22197 23.6334 12.1618 18.5725 14.7965 13.0473Z" fill="#2855B0"/>
</g>
<defs>
<clipPath id="clip0_1114_1348">
<rect width="162.5" height="25" fill="white"/>
</clipPath>
</defs>
</svg>
