<svg width="163" height="25" viewBox="0 0 163 25" fill="none" xmlns="http://www.w3.org/2000/svg">
<path fill-rule="evenodd" clip-rule="evenodd" d="M156.232 18.8585V13.487H153.796V13.6865C153.753 15.8665 153.397 17.4338 152.955 18.8585H156.232ZM160.564 18.8585H162.174L162.074 24.8283H158.085V22.335H151.559L151.488 24.8283H147.47V18.8585H148.866C149.564 16.8496 149.906 14.8977 149.906 10.6516V10.0533H160.564V18.8585ZM79.6785 9.29815C76.7577 9.29815 75.3756 8.05855 75.0335 5.90706L78.3248 5.43701C78.4817 6.24914 78.8805 6.76201 79.6785 6.76201C80.4765 6.76201 80.8753 6.24914 81.032 5.43701L84.3233 5.90706C83.9815 8.05855 82.585 9.29815 79.6785 9.29815ZM64.8749 18.944C66.4422 18.944 67.4395 17.7173 67.4395 16.2083C67.4395 14.7279 66.3425 13.4727 64.8321 13.4727C63.265 13.4727 62.2677 14.6997 62.2677 16.2083C62.2677 17.689 63.3504 18.944 64.8749 18.944ZM64.8749 9.78261C68.793 9.78261 71.6283 12.6749 71.6283 16.2083C71.6283 19.6992 68.7786 22.6341 64.8321 22.6341C60.8996 22.6341 58.0642 19.742 58.0642 16.2083C58.0642 12.7178 60.9284 9.78261 64.8749 9.78261ZM139.163 19.001C140.545 19.001 141.657 17.8468 141.657 16.18C141.657 14.5557 140.545 13.3874 139.163 13.3874C137.753 13.3874 136.641 14.527 136.641 16.2226C136.641 17.8468 137.753 19.001 139.163 19.001ZM141.571 10.0533H145.874V22.335H141.571V20.6966C140.731 21.7223 139.69 22.6057 137.853 22.6057C134.917 22.6057 132.396 20.1835 132.396 16.2085C132.396 12.2191 134.917 9.78248 137.824 9.78248C139.69 9.78248 140.773 10.6233 141.571 11.5493V10.0533ZM77.6125 16.2369L81.716 10.0533H85.6912V22.335H81.5162V18.3312C81.5162 17.5619 81.5162 16.8496 81.5306 16.1513L77.4274 22.335H73.4521V10.0533H77.6269V14.0001C77.6269 14.6127 77.6269 15.4961 77.6125 16.2369ZM120.043 12.4184L120.071 10.0533H130.643V22.335H126.326V13.487H123.847V13.8719C123.719 21.2949 122.066 22.4917 119.459 22.4917C119.045 22.4917 118.233 22.4204 117.692 22.335H112.577L109.186 17.0917V22.335H104.883V10.0533H109.186V14.7835L112.477 10.0533H117.449L113.061 15.6385L117.563 22.1924L117.763 18.4167C118.233 18.4739 118.347 18.4739 118.461 18.4739C119.231 18.4739 120.028 17.9182 120.043 12.4184ZM96.9185 18.4881C98.4289 18.4881 99.469 17.8327 100.338 16.5789L103.658 19.001C102.076 21.1381 100.081 22.6341 96.6049 22.6341C91.9885 22.6341 88.4554 19.2005 88.4554 14.3562C88.4554 9.83958 91.9603 6.12102 96.8187 6.12102C99.8249 6.12102 102.019 7.43166 103.572 9.65444L100.309 12.0336C99.4403 10.8228 98.4002 10.2527 97.018 10.2527C94.696 10.2527 93.0858 12.0765 93.0858 14.3562C93.0858 16.8638 94.767 18.4881 96.9185 18.4881ZM51.3108 6.39166H54.1462L57.1952 22.335H52.8782L51.4819 14.5555L47.5923 22.8622H47.0935L43.1895 14.6271L41.7935 22.335H37.5049L40.5539 6.39166H43.3747C43.3747 6.39166 45.8254 11.6632 46.3101 12.6748C46.7945 13.6865 47.3499 14.983 47.3499 14.983C47.3499 14.983 48.0623 13.3162 48.4185 12.6038C48.7749 11.8914 51.3108 6.39166 51.3108 6.39166Z" fill="#656566"/>
<path fill-rule="evenodd" clip-rule="evenodd" d="M4.33594 23.6334C8.22307 23.6334 11.1619 18.5725 13.7966 13.0473C15.0647 10.3685 16.2471 7.56186 17.4295 5.1824C18.728 2.54305 20.0599 0.680176 21.6896 0.680176C23.0711 0.680176 24.3711 1.79577 25.6649 3.54379C28.3473 7.173 30.6659 13.319 30.6659 17.35C30.6659 20.7267 28.9278 23.6334 25.3656 23.6334H4.33594Z" fill="#6E7072"/>
<path fill-rule="evenodd" clip-rule="evenodd" d="M13.7965 13.0473C11.1264 7.66435 9.91752 3.71484 7.55588 3.71484C6.08831 3.71484 4.43559 5.25371 2.93955 7.77549C1.33682 10.4515 0.0756836 14.2275 0.0756836 18.2906C0.0756836 21.499 1.64598 23.6334 4.33583 23.6334C8.22197 23.6334 11.1618 18.5725 13.7965 13.0473Z" fill="#656566"/>
</svg>
