<svg width="150" height="20" viewBox="0 0 150 20" fill="none" xmlns="http://www.w3.org/2000/svg">
<path d="M14.127 19.4048V5.55555H22.3016V0.515936H0V5.55555H8.17459V19.4048H14.127ZM30.6364 0.515936H24.684V19.4048H30.6364V0.515936ZM34.992 0.515936V19.4048H40.4684V8.96839L50.6668 19.4048H55.7461V0.515936H50.2697V10.8732L40.3096 0.515936H34.992ZM67.4457 12.262L74.3099 19.4048H81.969L72.4055 9.56346L81.6111 0.515936H74.3891L67.4457 7.61912H65.8578V0.515936H60.1036V19.4048H65.8578V12.262H67.4457ZM93.8084 0C86.0703 0 81.427 4.36506 81.427 9.99991C81.427 15.6349 86.0703 20 93.8084 20C101.509 20 106.15 15.6349 106.15 9.99991C106.15 4.36506 101.509 0 93.8084 0ZM93.8084 15.3968C89.96 15.3968 87.4982 13.0952 87.4982 9.99991C87.4982 6.90482 89.96 4.64272 93.8084 4.64272C97.619 4.64272 100.119 6.90482 100.119 9.99991C100.119 13.0952 97.619 15.3968 93.8084 15.3968ZM127.971 0.515936H108.884V19.4048H114.637V12.8175H127.139V8.65081H114.637V5.31745H127.971V0.515936ZM149.634 0.515936H130.545V19.4048H136.299V12.8175H148.801V8.65081H136.299V5.31745H149.634V0.515936Z" fill="#656566"/>
</svg>
