<svg width="130" height="26" viewBox="0 0 130 26" fill="none" xmlns="http://www.w3.org/2000/svg">
<g clip-path="url(#clip0_551_4845)">
<path d="M34.4536 17.1572V9.74982C34.4536 9.47401 34.6112 9.31641 34.887 9.31641H36.7389C37.0147 9.31641 37.1723 9.47401 37.1723 9.74982V16.8814C37.1723 18.4575 38.1573 18.9697 39.1817 18.9697C40.2062 18.9697 41.1912 18.4575 41.1912 16.8814V9.74982C41.1912 9.47401 41.3488 9.31641 41.6246 9.31641H43.5159C43.7917 9.31641 43.9493 9.47401 43.9493 9.74982V17.1572C43.9493 19.5607 42.255 21.6489 39.1423 21.6489C36.0297 21.6489 34.4536 19.5607 34.4536 17.1572Z" fill="#656566"/>
<path d="M45.998 21.0579V9.74982C45.998 9.47401 46.1557 9.31641 46.4315 9.31641H48.2833C48.5197 9.31641 48.7167 9.39521 48.8349 9.63162L53.3267 16.6844V9.74982C53.3267 9.47401 53.4843 9.31641 53.7601 9.31641H55.6119C55.8877 9.31641 56.0453 9.47401 56.0453 9.74982V21.0579C56.0453 21.3337 55.8877 21.4913 55.6119 21.4913H53.7207C53.4843 21.4913 53.2873 21.4125 53.1691 21.1761L48.7167 14.1627V21.0185C48.7167 21.2943 48.5591 21.4519 48.2833 21.4519H46.4315C46.1557 21.5307 45.998 21.3337 45.998 21.0579Z" fill="#656566"/>
<path d="M58.0942 21.0579V9.74982C58.0942 9.47401 58.2518 9.31641 58.5277 9.31641H60.3795C60.6553 9.31641 60.8129 9.47401 60.8129 9.74982V21.0579C60.8129 21.3337 60.6553 21.4913 60.3795 21.4913H58.5277C58.2518 21.5307 58.0942 21.3337 58.0942 21.0579Z" fill="#656566"/>
<path d="M62.6254 19.0483C62.5072 18.8119 62.586 18.6149 62.783 18.4572L64.3196 17.354C64.556 17.1964 64.753 17.2358 64.95 17.4328C65.5016 18.0632 66.7625 18.9301 68.1415 18.9301C69.4024 18.9301 69.6782 18.4572 69.6782 17.9056C69.6782 17.0782 67.9051 16.763 67.0383 16.4478C66.1715 16.1326 62.98 15.5022 62.98 12.7441C62.98 10.0254 65.3834 9.00098 67.8263 9.00098C69.954 9.00098 71.8058 10.1436 72.4757 11.3256C72.6333 11.5621 72.5151 11.7591 72.3181 11.9167L70.8602 12.9017C70.6238 13.0593 70.4268 13.0199 70.2298 12.8229C69.7176 12.3501 68.6537 11.7591 67.4717 11.7591C66.6049 11.7591 66.1715 12.0743 66.1715 12.5865C66.1715 13.4139 67.8263 13.7291 68.7325 14.0443C69.5994 14.3595 72.7909 15.1476 72.7909 17.748C72.7909 20.3091 70.7814 21.6487 67.8263 21.6487C65.147 21.7275 63.374 20.4273 62.6254 19.0483Z" fill="#656566"/>
<path d="M74.3667 21.0579V9.74982C74.3667 9.47401 74.5243 9.31641 74.8001 9.31641H82.2863C82.5621 9.31641 82.7197 9.47401 82.7197 9.74982V11.3653C82.7197 11.6411 82.5621 11.7987 82.2863 11.7987H77.1248V14.1233H81.8923C82.1681 14.1233 82.3257 14.2809 82.3257 14.5568V16.1722C82.3257 16.448 82.1681 16.6056 81.8923 16.6056H77.1248V18.9303H82.2863C82.5621 18.9303 82.7197 19.0879 82.7197 19.3637V20.9791C82.7197 21.2549 82.5621 21.4125 82.2863 21.4125H74.8001C74.5243 21.5307 74.3667 21.3337 74.3667 21.0579Z" fill="#656566"/>
<path d="M84.6504 21.0579V9.74982C84.6504 9.47401 84.808 9.31641 85.0838 9.31641H86.9357C87.1721 9.31641 87.3691 9.39521 87.4873 9.63162L91.979 16.6844V9.74982C91.979 9.47401 92.1366 9.31641 92.4124 9.31641H94.2643C94.5401 9.31641 94.6977 9.47401 94.6977 9.74982V21.0579C94.6977 21.3337 94.5401 21.4913 94.2643 21.4913H92.4124C92.176 21.4913 91.979 21.4125 91.8608 21.1761L87.4085 14.1627V21.0185C87.4085 21.2943 87.2509 21.4519 86.9751 21.4519H85.1232C84.808 21.5307 84.6504 21.3337 84.6504 21.0579Z" fill="#656566"/>
<path d="M96.7466 21.0579V9.74982C96.7466 9.47401 96.9042 9.31641 97.18 9.31641H101.357C104.942 9.31641 107.345 11.7987 107.345 15.4236C107.345 19.0485 104.903 21.5307 101.357 21.5307H97.18C96.9042 21.5307 96.7466 21.3337 96.7466 21.0579ZM101.396 18.8121C102.223 18.8121 104.666 18.3787 104.627 15.3842C104.627 12.4291 102.223 11.9563 101.396 11.9563H99.5047V18.8121H101.396Z" fill="#656566"/>
<path d="M109.079 21.0579V9.74982C109.079 9.47401 109.237 9.31641 109.513 9.31641H116.999C117.275 9.31641 117.432 9.47401 117.432 9.74982V11.3653C117.432 11.6411 117.275 11.7987 116.999 11.7987H111.837V14.1233H116.605C116.881 14.1233 117.038 14.2809 117.038 14.5568V16.1722C117.038 16.448 116.881 16.6056 116.605 16.6056H111.837V18.9303H116.999C117.275 18.9303 117.432 19.0879 117.432 19.3637V20.9791C117.432 21.2549 117.275 21.4125 116.999 21.4125H109.513C109.276 21.5307 109.079 21.3337 109.079 21.0579Z" fill="#656566"/>
<path d="M119.363 21.0579V9.74982C119.363 9.47401 119.52 9.31641 119.796 9.31641H125.273C127.085 9.31641 129.055 10.656 129.055 13.4535C129.055 15.463 127.992 16.7632 126.691 17.2754L128.977 21.0185C129.174 21.3337 129.016 21.5701 128.661 21.5701H126.455C126.219 21.5701 126.022 21.4913 125.903 21.2549L123.657 17.5512H122.042V21.0973C122.042 21.3731 121.884 21.5307 121.609 21.5307H119.757C119.56 21.5307 119.363 21.3337 119.363 21.0579ZM124.84 14.872C125.628 14.872 126.337 14.3597 126.337 13.4141C126.337 12.4685 125.628 11.9957 124.84 11.9957H122.16V14.872H124.84Z" fill="#656566"/>
<g opacity="0.4">
<path d="M24.8004 9.63162C24.6428 8.52839 24.0124 5.4157 21.5301 4.11546C19.8752 3.24864 17.1172 2.30301 13.4135 3.13043C10.8524 3.72145 10.0644 4.54887 9.31574 5.5339C8.44891 6.63713 8.48832 8.13438 8.33071 10.0256C8.29131 10.3408 8.0549 10.5378 7.73969 10.5378C6.20305 10.4984 4.5088 10.3408 2.89336 10.2226C2.57815 10.1832 2.30234 10.459 2.26294 10.7743C2.06594 15.7782 3.16917 18.4969 5.96664 20.1123C7.34568 20.9003 8.84293 21.3732 11.3252 20.8215C11.3646 20.9003 11.404 21.0185 11.4434 21.0973C12.9012 24.5646 12.586 25.5497 16.0927 25.0769C16.7231 24.9981 17.3142 24.8405 17.8658 24.604C20.7027 23.4614 23.9335 20.6245 23.9729 17.5512C24.0124 13.8869 25.1944 12.3503 24.8004 9.63162Z" fill="white"/>
<path opacity="0.2" d="M19.0872 5.53338C25.155 13.847 12.9013 15.2261 12.1921 10.3009C11.5222 5.73039 17.59 3.44512 19.0872 5.53338Z" fill="#656566"/>
<path d="M19.3238 7.7012C18.851 6.59797 17.5901 5.61295 16.2899 5.84935C15.9747 5.88875 16.0141 6.36157 16.3293 6.32217C17.3931 6.12516 18.457 6.95258 18.851 7.89821C18.9692 8.17402 19.442 8.01641 19.3238 7.7012Z" fill="#656566"/>
<path d="M13.0588 18.4966C12.9012 18.536 12.7436 18.536 12.6648 18.536C12.3102 18.5754 12.0344 18.339 11.995 17.9844C11.9556 17.6692 12.192 17.354 12.5466 17.3146C12.8618 17.2752 15.7381 16.96 16.6443 15.2657C16.8019 14.9505 17.1565 14.8323 17.4718 14.9899C17.787 15.1475 17.9052 15.5021 17.7476 15.8173C16.7231 17.748 14.1621 18.339 13.0588 18.4966Z" fill="#656566"/>
<path d="M7.14873 14.2413C7.46394 14.123 7.70035 13.8078 7.58214 13.532C7.50334 13.2168 7.14873 13.0592 6.83352 13.1774C6.51831 13.2956 6.28191 13.6108 6.40011 13.8866C6.47891 14.1624 6.79412 14.3595 7.14873 14.2413Z" fill="#656566"/>
<path d="M7.06998 15.4628C7.30638 15.384 7.42459 15.187 7.38518 14.9505C7.30638 14.7535 7.10938 14.6353 6.87297 14.7141C6.63656 14.7929 6.51836 14.9899 6.55776 15.2264C6.63656 15.4234 6.87297 15.5416 7.06998 15.4628Z" fill="#656566"/>
<path d="M8.52799 14.9501C8.76439 14.8713 8.8826 14.6743 8.8432 14.4379C8.76439 14.2408 8.56739 14.1226 8.33098 14.2014C8.09457 14.2802 7.97637 14.4773 8.01577 14.7137C8.09457 14.8713 8.33098 14.9895 8.52799 14.9501Z" fill="#656566"/>
<path d="M17.6295 10.1041C17.7871 9.07968 17.3931 8.17346 16.7233 8.05525C16.0535 7.93705 15.3836 8.68567 15.226 9.7101C15.0684 10.7345 15.4624 11.6408 16.1323 11.759C16.8021 11.8772 17.4719 11.1285 17.6295 10.1041Z" fill="#656566"/>
<path d="M11.562 9.94669C11.759 9.19806 11.5226 8.52825 11.0497 8.37064C10.5769 8.25244 9.98592 8.72525 9.78891 9.43447C9.59191 10.1831 9.82831 10.8529 10.3011 11.0105C10.8133 11.1681 11.365 10.6559 11.562 9.94669Z" fill="#656566"/>
<path d="M16.6445 9.90727C16.6445 10.2619 16.9597 10.5771 17.3144 10.5771C17.3932 10.5771 17.472 10.5771 17.5508 10.5377C17.5902 10.4195 17.6296 10.2619 17.669 10.1043C17.7084 9.82847 17.7084 9.59206 17.669 9.35566C17.5508 9.27686 17.4326 9.27686 17.3144 9.27686C16.9597 9.27686 16.6445 9.55266 16.6445 9.90727Z" fill="white"/>
<path d="M11.2074 9.27686C10.8922 9.27686 10.6558 9.51326 10.6558 9.82847C10.6558 10.1437 10.8922 10.3801 11.2074 10.3801C11.2862 10.3801 11.365 10.3801 11.4438 10.3407C11.4832 10.2225 11.5226 10.1043 11.562 9.98607C11.6014 9.82847 11.6408 9.67087 11.6408 9.51326C11.562 9.35566 11.4044 9.27686 11.2074 9.27686Z" fill="white"/>
<path d="M27.8345 3.32715C26.0614 0.68728 22.0031 1.82991 17.9448 0.37207C17.669 1.16009 17.669 1.86931 17.866 2.49973C17.3932 2.42093 16.881 2.38153 16.3294 2.38153C15.8565 2.38153 15.3837 2.42093 14.9109 2.46033C14.9109 2.42093 14.9109 2.38153 14.8715 2.34213C14.3593 0.253868 7.73991 2.30272 5.92746 1.19949C6.08507 3.40596 7.3853 4.66679 8.64614 6.24283C8.29153 7.22786 8.29153 8.4493 8.17333 9.86774C8.13392 10.1829 7.89752 10.4194 7.58231 10.38C6.95189 10.38 6.28207 10.3405 5.57285 10.3011C4.94243 8.88271 -0.0221061 8.01588 0.52951 11.2468C0.805317 12.7834 1.35693 13.926 2.06615 14.5565C2.49957 17.3539 3.6422 19.0876 5.73046 20.309C6.67608 20.8606 7.89752 21.1758 9.35536 21.1758C10.104 21.1758 10.4192 21.2153 11.286 21.0182C11.3254 21.097 11.4042 21.2153 11.4436 21.2941C12.7439 24.3279 12.1528 25.51 14.8321 25.51C15.3049 25.51 15.8171 25.4706 16.3294 25.3918C16.9598 25.313 17.5902 25.116 18.1812 24.8796C21.0969 23.6975 25.1158 20.8606 25.1552 17.7086C25.1946 14.2019 25.628 12.4682 25.3128 9.94654C27.0859 8.6857 27.8739 6.20343 28.1891 4.9426C28.2679 4.39098 28.1497 3.79997 27.8345 3.32715ZM23.855 17.7086C23.8156 20.4666 20.1119 22.7519 17.669 23.7763C17.1568 23.9733 16.6446 24.1309 16.1324 24.2097C15.6201 24.2491 15.1867 24.2885 14.7927 24.2885C12.9803 24.2885 13.8077 23.8157 12.5468 20.8212C12.5074 20.7424 12.468 20.6636 12.4286 20.5848C12.4286 20.5454 12.3892 20.5454 12.3892 20.506L11.9952 19.6392L11.0496 19.8362C10.301 19.9938 10.0646 19.9544 9.35536 19.9544C8.21273 19.9544 7.1489 19.718 6.32147 19.2452C4.98184 18.4572 4.07561 17.3933 3.6028 15.8567C3.48459 15.4627 3.6028 14.9899 3.91801 14.7535C4.43022 14.3595 4.90303 13.6108 5.25764 12.35C5.37585 11.8772 5.84866 11.562 6.32147 11.6014C6.71549 11.6408 7.1095 11.6408 7.50351 11.6408H7.54291C8.48853 11.6408 9.23716 10.9316 9.35536 9.98594C9.39476 9.67073 9.39476 9.35552 9.43416 9.07971C9.51296 8.29169 9.55236 7.62187 9.67057 7.03086C10.1434 6.40044 10.9314 6.00643 11.68 6.00643C11.9952 6.00643 11.9952 5.49421 11.68 5.53361C11.1678 5.53361 10.6162 5.73062 10.1434 6.00643C10.7344 5.25781 11.3254 4.54859 13.6895 3.99697C14.5957 3.79997 15.4625 3.68176 16.3294 3.68176C17.1568 3.68176 17.9448 3.76057 18.6934 3.95757C20.3089 5.77002 23.3822 7.30666 24.052 10.3011C24.2884 12.5864 23.8944 14.2413 23.855 17.7086Z" fill="#656566"/>
<path d="M2.26299 10.459C2.5782 10.3408 2.81461 10.0256 2.69641 9.74981C2.6176 9.4346 2.26299 9.277 1.94778 9.3952C1.63257 9.51341 1.39617 9.82861 1.51437 10.1044C1.59317 10.3802 1.90838 10.5378 2.26299 10.459Z" fill="white"/>
</g>
</g>
<defs>
<clipPath id="clip0_551_4845">
<rect width="130" height="26" fill="white"/>
</clipPath>
</defs>
</svg>
