<svg width="153" height="30" viewBox="0 0 153 30" fill="none" xmlns="http://www.w3.org/2000/svg">
<path d="M8.66 24.21C7.02 24.21 5.56 23.86 4.28 23.16C3 22.44 1.99 21.46 1.25 20.22C0.51 18.98 0.14 17.57 0.14 15.99C0.14 14.39 0.51 12.98 1.25 11.76C1.99 10.52 3 9.55 4.28 8.85C5.56 8.15 7.02 7.8 8.66 7.8C10.32 7.8 11.79 8.15 13.07 8.85C14.37 9.55 15.38 10.51 16.1 11.73C16.84 12.95 17.21 14.37 17.21 15.99C17.21 17.57 16.84 18.98 16.1 20.22C15.38 21.46 14.37 22.44 13.07 23.16C11.79 23.86 10.32 24.21 8.66 24.21ZM8.66 21C9.58 21 10.4 20.8 11.12 20.4C11.84 20 12.4 19.42 12.8 18.66C13.22 17.9 13.43 17.01 13.43 15.99C13.43 14.95 13.22 14.06 12.8 13.32C12.4 12.56 11.84 11.98 11.12 11.58C10.4 11.18 9.59 10.98 8.69 10.98C7.77 10.98 6.95 11.18 6.23 11.58C5.53 11.98 4.97 12.56 4.55 13.32C4.13 14.06 3.92 14.95 3.92 15.99C3.92 17.01 4.13 17.9 4.55 18.66C4.97 19.42 5.53 20 6.23 20.4C6.95 20.8 7.76 21 8.66 21ZM29.8859 7.8C31.1659 7.8 32.3059 8.05 33.3059 8.55C34.3259 9.05 35.1259 9.82 35.7059 10.86C36.2859 11.88 36.5759 13.2 36.5759 14.82V24H32.8259V15.3C32.8259 13.88 32.4859 12.82 31.8059 12.12C31.1459 11.42 30.2159 11.07 29.0159 11.07C28.1359 11.07 27.3559 11.25 26.6759 11.61C25.9959 11.97 25.4659 12.51 25.0859 13.23C24.7259 13.93 24.5459 14.82 24.5459 15.9V24H20.7959V7.98H24.3659V12.3L23.7359 10.98C24.2959 9.96 25.1059 9.18 26.1659 8.64C27.2459 8.08 28.4859 7.8 29.8859 7.8ZM41.333 24V1.74H45.083V24H41.333ZM50.0049 24V7.98H53.7549V24H50.0049ZM51.8949 5.34C51.1949 5.34 50.6149 5.12 50.1549 4.68C49.7149 4.24 49.4949 3.71 49.4949 3.09C49.4949 2.45 49.7149 1.92 50.1549 1.5C50.6149 1.06 51.1949 0.84 51.8949 0.84C52.5949 0.84 53.1649 1.05 53.6049 1.47C54.0649 1.87 54.2949 2.38 54.2949 3C54.2949 3.66 54.0749 4.22 53.6349 4.68C53.1949 5.12 52.6149 5.34 51.8949 5.34ZM67.7668 7.8C69.0468 7.8 70.1868 8.05 71.1868 8.55C72.2068 9.05 73.0068 9.82 73.5868 10.86C74.1668 11.88 74.4568 13.2 74.4568 14.82V24H70.7068V15.3C70.7068 13.88 70.3668 12.82 69.6868 12.12C69.0268 11.42 68.0968 11.07 66.8968 11.07C66.0168 11.07 65.2368 11.25 64.5568 11.61C63.8768 11.97 63.3468 12.51 62.9668 13.23C62.6068 13.93 62.4268 14.82 62.4268 15.9V24H58.6768V7.98H62.2468V12.3L61.6168 10.98C62.1768 9.96 62.9868 9.18 64.0468 8.64C65.1268 8.08 66.3668 7.8 67.7668 7.8ZM86.7732 24.21C84.9932 24.21 83.4332 23.86 82.0932 23.16C80.7732 22.44 79.7432 21.46 79.0032 20.22C78.2832 18.98 77.9232 17.57 77.9232 15.99C77.9232 14.39 78.2732 12.98 78.9732 11.76C79.6932 10.52 80.6732 9.55 81.9132 8.85C83.1732 8.15 84.6032 7.8 86.2032 7.8C87.7632 7.8 89.1532 8.14 90.3732 8.82C91.5932 9.5 92.5532 10.46 93.2532 11.7C93.9532 12.94 94.3032 14.4 94.3032 16.08C94.3032 16.24 94.2932 16.42 94.2732 16.62C94.2732 16.82 94.2632 17.01 94.2432 17.19H80.8932V14.7H92.2632L90.7932 15.48C90.8132 14.56 90.6232 13.75 90.2232 13.05C89.8232 12.35 89.2732 11.8 88.5732 11.4C87.8932 11 87.1032 10.8 86.2032 10.8C85.2832 10.8 84.4732 11 83.7732 11.4C83.0932 11.8 82.5532 12.36 82.1532 13.08C81.7732 13.78 81.5832 14.61 81.5832 15.57V16.17C81.5832 17.13 81.8032 17.98 82.2432 18.72C82.6832 19.46 83.3032 20.03 84.1032 20.43C84.9032 20.83 85.8232 21.03 86.8632 21.03C87.7632 21.03 88.5732 20.89 89.2932 20.61C90.0132 20.33 90.6532 19.89 91.2132 19.29L93.2232 21.6C92.5032 22.44 91.5932 23.09 90.4932 23.55C89.4132 23.99 88.1732 24.21 86.7732 24.21Z" fill="#01C817"/>
<path d="M106.785 24.21C105.485 24.21 104.295 23.91 103.215 23.31C102.155 22.71 101.305 21.81 100.665 20.61C100.045 19.39 99.7353 17.85 99.7353 15.99C99.7353 14.11 100.035 12.57 100.635 11.37C101.255 10.17 102.095 9.28 103.155 8.7C104.215 8.1 105.425 7.8 106.785 7.8C108.365 7.8 109.755 8.14 110.955 8.82C112.175 9.5 113.135 10.45 113.835 11.67C114.555 12.89 114.915 14.33 114.915 15.99C114.915 17.65 114.555 19.1 113.835 20.34C113.135 21.56 112.175 22.51 110.955 23.19C109.755 23.87 108.365 24.21 106.785 24.21ZM97.9053 29.82V7.98H101.475V11.76L101.355 16.02L101.655 20.28V29.82H97.9053ZM106.365 21C107.265 21 108.065 20.8 108.765 20.4C109.485 20 110.055 19.42 110.475 18.66C110.895 17.9 111.105 17.01 111.105 15.99C111.105 14.95 110.895 14.06 110.475 13.32C110.055 12.56 109.485 11.98 108.765 11.58C108.065 11.18 107.265 10.98 106.365 10.98C105.465 10.98 104.655 11.18 103.935 11.58C103.215 11.98 102.645 12.56 102.225 13.32C101.805 14.06 101.595 14.95 101.595 15.99C101.595 17.01 101.805 17.9 102.225 18.66C102.645 19.42 103.215 20 103.935 20.4C104.655 20.8 105.465 21 106.365 21ZM127.352 24.21C125.992 24.21 124.782 23.91 123.722 23.31C122.662 22.71 121.822 21.81 121.202 20.61C120.602 19.39 120.302 17.85 120.302 15.99C120.302 14.11 120.612 12.57 121.232 11.37C121.872 10.17 122.722 9.28 123.782 8.7C124.862 8.1 126.052 7.8 127.352 7.8C128.932 7.8 130.322 8.14 131.522 8.82C132.742 9.5 133.702 10.45 134.402 11.67C135.122 12.89 135.482 14.33 135.482 15.99C135.482 17.65 135.122 19.09 134.402 20.31C133.702 21.53 132.742 22.49 131.522 23.19C130.322 23.87 128.932 24.21 127.352 24.21ZM118.472 24V1.74H122.222V11.7L121.922 15.96L122.042 20.22V24H118.472ZM126.932 21C127.832 21 128.632 20.8 129.332 20.4C130.052 20 130.622 19.42 131.042 18.66C131.462 17.9 131.672 17.01 131.672 15.99C131.672 14.95 131.462 14.06 131.042 13.32C130.622 12.56 130.052 11.98 129.332 11.58C128.632 11.18 127.832 10.98 126.932 10.98C126.032 10.98 125.222 11.18 124.502 11.58C123.782 11.98 123.212 12.56 122.792 13.32C122.372 14.06 122.162 14.95 122.162 15.99C122.162 17.01 122.372 17.9 122.792 18.66C123.212 19.42 123.782 20 124.502 20.4C125.222 20.8 126.032 21 126.932 21ZM136.321 24L143.371 14.82L143.311 16.83L136.591 7.98H140.761L145.471 14.28H143.881L148.621 7.98H152.671L145.891 16.83L145.921 14.82L152.941 24H148.711L143.761 17.31L145.321 17.52L140.461 24H136.321Z" fill="white"/>
</svg>
