<svg width="40" height="40" viewBox="0 0 40 40" fill="none" xmlns="http://www.w3.org/2000/svg">
<path d="M20.2859 14.5713C20.6647 14.5713 21.0281 14.7218 21.296 14.9897C21.5639 15.2576 21.7144 15.621 21.7144 15.9999C21.7144 16.3787 21.5639 16.7421 21.296 17.01C21.0281 17.2779 20.6647 17.4284 20.2859 17.4284C19.907 17.4284 19.5436 17.2779 19.2757 17.01C19.0078 16.7421 18.8573 16.3787 18.8573 15.9999C18.8573 15.621 19.0078 15.2576 19.2757 14.9897C19.5436 14.7218 19.907 14.5713 20.2859 14.5713ZM33.143 18.857C33.143 26.7856 27.6573 34.1999 20.2859 35.9999C12.9144 34.1999 7.42871 26.7856 7.42871 18.857V10.2856L20.2859 4.57129L33.143 10.2856V18.857ZM20.2859 11.7141C19.1492 11.7141 18.0591 12.1657 17.2554 12.9694C16.4517 13.7731 16.0001 14.8632 16.0001 15.9999C16.0001 17.8713 17.1859 19.457 18.8573 20.0427V28.857H21.7144V25.9999H24.5716V23.1427H21.7144V20.0427C23.3859 19.457 24.5716 17.8713 24.5716 15.9999C24.5716 14.8632 24.12 13.7731 23.3163 12.9694C22.5126 12.1657 21.4225 11.7141 20.2859 11.7141Z" fill="url(#paint0_linear_4637_251)"/>
<defs>
<linearGradient id="paint0_linear_4637_251" x1="1.85713" y1="-1.19042" x2="60.781" y2="42.4874" gradientUnits="userSpaceOnUse">
<stop offset="0.369906" stop-color="#FCB045"/>
<stop offset="1" stop-color="#FD1D1D"/>
</linearGradient>
</defs>
</svg>
