<svg width="40" height="40" viewBox="0 0 40 40" fill="none" xmlns="http://www.w3.org/2000/svg">
<path d="M20.2856 4.57129C11.6207 4.57129 4.57129 11.6207 4.57129 20.2856V26.796C4.57129 28.4051 5.98086 29.7141 7.71415 29.7141H9.28557C9.70234 29.7141 10.102 29.5486 10.3967 29.2539C10.6914 28.9592 10.857 28.5595 10.857 28.1427V20.0609C10.857 19.6441 10.6914 19.2444 10.3967 18.9497C10.102 18.655 9.70234 18.4894 9.28557 18.4894H7.85872C8.73243 12.408 13.9653 7.71415 20.2856 7.71415C26.6059 7.71415 31.8387 12.408 32.7124 18.4894H31.2856C30.8688 18.4894 30.4691 18.655 30.1744 18.9497C29.8797 19.2444 29.7141 19.6441 29.7141 20.0609V29.7141C29.7141 31.4474 28.3046 32.857 26.5713 32.857H23.4284V31.2856H17.1427V35.9999H26.5713C30.0379 35.9999 32.857 33.1807 32.857 29.7141C34.5903 29.7141 35.9999 28.4051 35.9999 26.796V20.2856C35.9999 11.6207 28.9504 4.57129 20.2856 4.57129Z" fill="url(#paint0_linear_4637_137)"/>
<defs>
<linearGradient id="paint0_linear_4637_137" x1="-2.23842" y1="-1.19042" x2="59.0473" y2="54.3334" gradientUnits="userSpaceOnUse">
<stop offset="0.369906" stop-color="#FCB045"/>
<stop offset="1" stop-color="#FD1D1D"/>
</linearGradient>
</defs>
</svg>
