<svg width="40" height="40" viewBox="0 0 40 40" fill="none" xmlns="http://www.w3.org/2000/svg">
<g clip-path="url(#clip0_4637_785)">
<path d="M12.857 7.42857H27.1427V12.5714H29.9999V6.85714C29.9999 5.28571 28.7141 4.01429 27.1427 4.01429L12.857 4C11.2856 4 9.99986 5.28571 9.99986 6.85714V12.5714H12.857V7.42857ZM24.8713 26.2714L31.4284 19.7143L24.8713 13.1571L22.857 15.1857L27.3856 19.7143L22.857 24.2429L24.8713 26.2714ZM17.1427 24.2429L12.6141 19.7143L17.1427 15.1857L15.1284 13.1571L8.57129 19.7143L15.1284 26.2714L17.1427 24.2429ZM27.1427 32H12.857V26.8571H9.99986V32.5714C9.99986 34.1429 11.2856 35.4286 12.857 35.4286H27.1427C28.7141 35.4286 29.9999 34.1429 29.9999 32.5714V26.8571H27.1427V32Z" fill="url(#paint0_linear_4637_785)"/>
</g>
<defs>
<linearGradient id="paint0_linear_4637_785" x1="3.61878" y1="-1.76171" x2="60.2071" y2="35.5242" gradientUnits="userSpaceOnUse">
<stop offset="0.369906" stop-color="#FCB045"/>
<stop offset="1" stop-color="#FD1D1D"/>
</linearGradient>
<clipPath id="clip0_4637_785">
<rect width="40" height="40" fill="white"/>
</clipPath>
</defs>
</svg>
