<svg width="40" height="40" viewBox="0 0 40 40" fill="none" xmlns="http://www.w3.org/2000/svg">
<path d="M35.9999 17.9795L31.4145 17.3066C31.1538 16.3339 30.7657 15.4 30.2602 14.5293L33.0303 10.8044L29.7713 7.54188L26.0491 10.3159C25.1788 9.81012 24.2455 9.42171 23.2735 9.16076L22.6015 4.57129L17.9935 4.57148L17.3212 9.16194C16.3497 9.42247 15.4171 9.81091 14.5479 10.3171L10.8652 7.54175L7.56469 10.8044L10.3368 14.5304C9.83097 15.4008 9.44281 16.3344 9.18252 17.307L4.5946 17.9794L4.57129 22.534L9.18212 23.2644C9.44232 24.2366 9.83048 25.1699 10.3364 26.0398L7.56345 29.7651L10.823 33.0277L14.5451 30.2539C15.4153 30.76 16.3487 31.1487 17.3208 31.4099L17.9929 35.9999H22.5396L23.2735 31.4102C24.2459 31.1498 25.1793 30.7609 26.0491 30.2539L29.7713 33.0275L33.0308 29.7651L30.2598 26.041C30.7652 25.1704 31.1533 24.2368 31.4141 23.2644L35.9996 22.5915L35.9999 17.9795ZM20.2981 25.5588C17.3227 25.5588 15.0273 22.882 15.0273 20.2857C15.0273 17.3066 17.3208 15.0123 20.2981 15.0123C23.2754 15.0123 25.5665 17.3066 25.5669 20.2857C25.5674 23.2648 23.2735 25.5588 20.2981 25.5588Z" fill="url(#paint0_linear_4637_399)"/>
<defs>
<linearGradient id="paint0_linear_4637_399" x1="-2.23842" y1="-1.19042" x2="59.0473" y2="54.3334" gradientUnits="userSpaceOnUse">
<stop offset="0.369906" stop-color="#FCB045"/>
<stop offset="1" stop-color="#FD1D1D"/>
</linearGradient>
</defs>
</svg>
