<svg width="40" height="40" viewBox="0 0 40 40" fill="none" xmlns="http://www.w3.org/2000/svg">
<path d="M25.8333 23.0711C25.8333 26.4045 21.6667 28.9045 21.6667 31.4045H18.3333C18.3333 28.9045 14.1667 26.4045 14.1667 23.0711C14.1667 19.8545 16.7833 17.2378 20 17.2378C23.2167 17.2378 25.8333 19.8545 25.8333 23.0711ZM21.6667 33.0711H18.3333V35.5711H21.6667V33.0711ZM31.6667 22.2378C31.6667 25.0378 30.6833 27.5878 29.0333 29.6045L31.4 31.9711C32.6815 30.4756 33.6552 28.7418 34.2651 26.8691C34.8751 24.9965 35.1094 23.0218 34.9545 21.0584C34.7997 19.095 34.2588 17.1815 33.3628 15.4276C32.4668 13.6737 31.2334 12.114 29.7333 10.8378L27.3667 13.2045C28.7091 14.2965 29.7915 15.6738 30.5352 17.2363C31.279 18.7988 31.6655 20.5073 31.6667 22.2378ZM26.6667 8.90446L20 2.23779V7.23779C16.0218 7.23779 12.2064 8.81815 9.3934 11.6312C6.58035 14.4442 5 18.2595 5 22.2378C5 25.9545 6.36667 29.3545 8.6 31.9711L10.9667 29.6045C9.25967 27.5294 8.32857 24.9247 8.33333 22.2378C8.33333 15.8045 13.5667 10.5711 20 10.5711V15.5711L26.6667 8.90446Z" fill="url(#paint0_linear_4637_156)"/>
<defs>
<linearGradient id="paint0_linear_4637_156" x1="-1.50036" y1="-3.87311" x2="62.4799" y2="48.2969" gradientUnits="userSpaceOnUse">
<stop offset="0.369906" stop-color="#FCB045"/>
<stop offset="1" stop-color="#FD1D1D"/>
</linearGradient>
</defs>
</svg>
