<svg width="40" height="40" viewBox="0 0 40 40" fill="none" xmlns="http://www.w3.org/2000/svg">
<path d="M27.6513 12.3484C26.9481 11.6454 25.9944 11.2505 25.0001 11.2505C24.0057 11.2505 23.0521 11.6454 22.3488 12.3484L21.7676 12.9284L23.5351 14.6959L24.1163 14.1159C24.3521 13.8882 24.6678 13.7622 24.9956 13.7651C25.3233 13.7679 25.6368 13.8994 25.8686 14.1312C26.1004 14.3629 26.2318 14.6764 26.2347 15.0042C26.2375 15.3319 26.1115 15.6477 25.8838 15.8834L21.7676 19.9997L23.5351 21.7672L27.6513 17.6509C28.3543 16.9477 28.7493 15.9941 28.7493 14.9997C28.7493 14.0053 28.3543 13.0517 27.6513 12.3484Z" fill="url(#paint0_linear_4637_596)"/>
<path d="M15.8839 25.8837C15.6482 26.1114 15.3324 26.2374 15.0047 26.2345C14.6769 26.2317 14.3634 26.1002 14.1317 25.8684C13.8999 25.6367 13.7684 25.3232 13.7656 24.9954C13.7627 24.6677 13.8887 24.3519 14.1164 24.1162L18.2327 19.9999L16.4652 18.2324L12.3489 22.3487C11.9908 22.6946 11.7051 23.1084 11.5086 23.5659C11.312 24.0234 11.2086 24.5155 11.2042 25.0134C11.1999 25.5113 11.2948 26.0051 11.4834 26.466C11.6719 26.9269 11.9504 27.3456 12.3025 27.6977C12.6545 28.0498 13.0732 28.3282 13.5341 28.5168C13.995 28.7053 14.4888 28.8002 14.9867 28.7959C15.4846 28.7915 15.9767 28.6881 16.4342 28.4916C16.8917 28.295 17.3055 28.0093 17.6514 27.6512L18.2327 27.0712L16.4652 25.3037L15.8839 25.8837Z" fill="url(#paint1_linear_4637_596)"/>
<path d="M17.6511 12.3489C16.9417 11.6779 15.9985 11.31 15.0221 11.3236C14.0457 11.3372 13.1131 11.7311 12.4226 12.4216C11.7321 13.1121 11.3382 14.0447 11.3246 15.0211C11.311 15.9975 11.6788 16.9407 12.3499 17.6501L12.9299 18.2314L14.6974 16.4639L14.1174 15.8826C13.8897 15.6469 13.7637 15.3311 13.7665 15.0034C13.7694 14.6756 13.9008 14.3621 14.1326 14.1304C14.3643 13.8986 14.6779 13.7671 15.0056 13.7643C15.3334 13.7614 15.6491 13.8874 15.8849 14.1151L19.9999 18.2326L21.7674 16.4651L17.6511 12.3489Z" fill="url(#paint2_linear_4637_596)"/>
<path d="M27.6512 22.3488L27.0712 21.7676L25.3037 23.5351L25.8837 24.1163C26.1114 24.3521 26.2374 24.6678 26.2345 24.9956C26.2317 25.3233 26.1002 25.6368 25.8684 25.8686C25.6367 26.1004 25.3232 26.2318 24.9954 26.2347C24.6677 26.2375 24.3519 26.1115 24.1162 25.8838L19.9999 21.7676L18.2324 23.5351L22.3487 27.6513C23.0559 28.3344 24.0032 28.7124 24.9864 28.7039C25.9697 28.6953 26.9102 28.3009 27.6055 27.6056C28.3008 26.9104 28.6952 25.9698 28.7037 24.9866C28.7122 24.0033 28.3343 23.0561 27.6512 22.3488Z" fill="url(#paint3_linear_4637_596)"/>
<path d="M20 38.7499C19.7786 38.75 19.5612 38.6914 19.37 38.5799L4.37 29.8299C4.18128 29.7198 4.02472 29.5621 3.91593 29.3726C3.80715 29.1831 3.74994 28.9684 3.75 28.7499V11.2499C3.74994 11.0314 3.80715 10.8167 3.91593 10.6272C4.02472 10.4377 4.18128 10.28 4.37 10.1699L19.37 1.41988C19.5612 1.30831 19.7786 1.24951 20 1.24951C20.2214 1.24951 20.4388 1.30831 20.63 1.41988L35.63 10.1699L34.37 12.3299L20 3.94738L6.25 11.9674V28.0324L20 36.0536L33.75 28.0324V18.7499H36.25V28.7499C36.2501 28.9684 36.1929 29.1831 36.0841 29.3726C35.9753 29.5621 35.8187 29.7198 35.63 29.8299L20.63 38.5799C20.4388 38.6914 20.2214 38.75 20 38.7499Z" fill="url(#paint4_linear_4637_596)"/>
<defs>
<linearGradient id="paint0_linear_4637_596" x1="20.2548" y1="9.32249" x2="38.4587" y2="20.2713" gradientUnits="userSpaceOnUse">
<stop offset="0.369906" stop-color="#FCB045"/>
<stop offset="1" stop-color="#FD1D1D"/>
</linearGradient>
<linearGradient id="paint1_linear_4637_596" x1="9.6812" y1="16.2958" x2="27.9854" y2="27.3297" gradientUnits="userSpaceOnUse">
<stop offset="0.369906" stop-color="#FCB045"/>
<stop offset="1" stop-color="#FD1D1D"/>
</linearGradient>
<linearGradient id="paint2_linear_4637_596" x1="9.06148" y1="10.0566" x2="21.9581" y2="27.7165" gradientUnits="userSpaceOnUse">
<stop offset="0.369906" stop-color="#FCB045"/>
<stop offset="1" stop-color="#FD1D1D"/>
</linearGradient>
<linearGradient id="paint3_linear_4637_596" x1="15.9636" y1="20.4959" x2="28.9154" y2="38.2101" gradientUnits="userSpaceOnUse">
<stop offset="0.369906" stop-color="#FCB045"/>
<stop offset="1" stop-color="#FD1D1D"/>
</linearGradient>
<linearGradient id="paint4_linear_4637_596" x1="-3.29185" y1="-5.62532" x2="68.0928" y2="50.4243" gradientUnits="userSpaceOnUse">
<stop offset="0.369906" stop-color="#FCB045"/>
<stop offset="1" stop-color="#FD1D1D"/>
</linearGradient>
</defs>
</svg>
