<svg width="40" height="40" viewBox="0 0 40 40" fill="none" xmlns="http://www.w3.org/2000/svg">
<path d="M15.5006 16.5448C15.5161 15.3589 15.9952 14.2259 16.8356 13.3873C17.6761 12.5487 18.8115 12.0707 20 12.0552C21.1885 12.0707 22.3239 12.5487 23.1644 13.3873C24.0048 14.2259 24.4839 15.3589 24.4994 16.5448C24.4839 17.7307 24.0048 18.8637 23.1644 19.7023C22.3239 20.5409 21.1885 21.0189 20 21.0344C18.8115 21.0189 17.6761 20.5409 16.8356 19.7023C15.9952 18.8637 15.5161 17.7307 15.5006 16.5448ZM20 30.0137L25.9992 31.5102V26.9009C24.1899 27.9881 22.1118 28.5479 20 28.5171C17.8882 28.5479 15.8101 27.9881 14.0008 26.9009V31.5102L20 30.0137ZM20 7.56553C18.8181 7.54401 17.6443 7.76391 16.5507 8.21172C15.4571 8.65953 14.4669 9.32578 13.6409 10.1695C12.7861 10.9947 12.1107 11.9865 11.6566 13.0832C11.2025 14.18 10.9794 15.3583 11.0012 16.5448C10.9856 17.7238 11.2117 18.8935 11.6656 19.9821C12.1195 21.0707 12.7917 22.0552 13.6409 22.8752C14.463 23.727 15.4516 24.4016 16.5453 24.8572C17.6391 25.3128 18.8149 25.5398 20 25.5241C21.1851 25.5398 22.3609 25.3128 23.4547 24.8572C24.5484 24.4016 25.537 23.727 26.3591 22.8752C27.2083 22.0552 27.8805 21.0707 28.3344 19.9821C28.7883 18.8935 29.0144 17.7238 28.9988 16.5448C29.0206 15.3583 28.7975 14.18 28.3434 13.0832C27.8893 11.9865 27.2139 10.9947 26.3591 10.1695C25.5331 9.32578 24.5429 8.65953 23.4493 8.21172C22.3557 7.76391 21.1819 7.54401 20 7.56553ZM31.9984 16.5448C31.9664 17.9813 31.6769 19.4005 31.1435 20.7351C30.6629 22.0931 29.9359 23.3512 28.9988 24.4465V35.9999L20 33.0068L11.0012 35.9999V24.4465C9.06002 22.2712 7.99188 19.4575 8.00162 16.5448C7.97519 14.9743 8.27164 13.4151 8.87268 11.9633C9.47372 10.5116 10.3666 9.19825 11.4962 8.10428C12.5966 6.96706 13.9189 6.06694 15.3815 5.45949C16.8441 4.85203 18.4159 4.55014 20 4.57244C21.5841 4.55014 23.1559 4.85203 24.6185 5.45949C26.0811 6.06694 27.4034 6.96706 28.5038 8.10428C29.6334 9.19825 30.5263 10.5116 31.1273 11.9633C31.7284 13.4151 32.0248 14.9743 31.9984 16.5448Z" fill="url(#paint0_linear_4637_568)"/>
<defs>
<linearGradient id="paint0_linear_4637_568" x1="2.79986" y1="-1.19042" x2="60.4294" y2="38.6801" gradientUnits="userSpaceOnUse">
<stop offset="0.369906" stop-color="#FCB045"/>
<stop offset="1" stop-color="#FD1D1D"/>
</linearGradient>
</defs>
</svg>
