<svg width="200" height="100" viewBox="0 0 200 100" fill="none" xmlns="http://www.w3.org/2000/svg">
<rect x="0.5" y="0.5" width="199" height="99" fill="#0E1014" fill-opacity="0.6" stroke="#25262C"/>
<path d="M37.1136 40.5455V58H39.1591L48.6705 44.2955H48.8409V58H50.9545V40.5455H48.9091L39.3636 54.2841H39.1932V40.5455H37.1136ZM68.2408 40.5455H55.218V58H57.3317V42.4205H66.1271V58H68.2408V40.5455ZM79.2543 40.5455V58H81.2997L90.8111 44.2955H90.9815V58H93.0952V40.5455H91.0497L81.5043 54.2841H81.3338V40.5455H79.2543ZM97.0518 58H103.222C105.881 58 107.484 56.5 107.484 54.4886C107.484 52.4347 105.924 51.3267 104.484 51.1136C105.958 50.8068 107.006 49.9801 107.006 48.3864C107.006 46.2983 105.217 44.9091 102.404 44.9091H97.0518V58ZM98.9609 56.1591V52.1364H103.222C104.603 52.1364 105.438 52.9631 105.438 54.3182C105.438 55.4602 104.603 56.1591 103.222 56.1591H98.9609ZM98.9609 50.3977V46.75H102.404C104.015 46.75 104.995 47.4233 104.995 48.5227C104.995 49.6903 104.015 50.3977 102.404 50.3977H98.9609ZM114.381 58.3068C116.665 58.3068 117.858 57.0795 118.267 56.2273H118.369V58H120.381V49.375C120.381 45.2159 117.21 44.7386 115.54 44.7386C113.562 44.7386 111.312 45.4205 110.29 47.8068L112.199 48.4886C112.642 47.5341 113.69 46.5114 115.608 46.5114C117.457 46.5114 118.369 47.4915 118.369 49.1705V49.2386C118.369 50.2102 117.381 50.125 114.994 50.4318C112.565 50.7472 109.915 51.2841 109.915 54.2841C109.915 56.8409 111.892 58.3068 114.381 58.3068ZM114.688 56.5C113.085 56.5 111.926 55.7841 111.926 54.3864C111.926 52.8523 113.324 52.375 114.892 52.1705C115.744 52.0682 118.028 51.8295 118.369 51.4205V53.2614C118.369 54.8977 117.074 56.5 114.688 56.5ZM126.063 44.9091H124.052V58H126.063V52.4091H132.336V58H134.347V44.9091H132.336V50.5341H126.063V44.9091ZM143.339 58.2727C146.884 58.2727 149.271 55.5795 149.271 51.5227C149.271 47.4318 146.884 44.7386 143.339 44.7386C139.793 44.7386 137.407 47.4318 137.407 51.5227C137.407 55.5795 139.793 58.2727 143.339 58.2727ZM143.339 56.4659C140.646 56.4659 139.418 54.1477 139.418 51.5227C139.418 48.8977 140.646 46.5455 143.339 46.5455C146.032 46.5455 147.259 48.8977 147.259 51.5227C147.259 54.1477 146.032 56.4659 143.339 56.4659ZM152.341 58H158.511C161.17 58 162.773 56.5 162.773 54.4886C162.773 52.4347 161.213 51.3267 159.773 51.1136C161.247 50.8068 162.295 49.9801 162.295 48.3864C162.295 46.2983 160.506 44.9091 157.693 44.9091H152.341V58ZM154.25 56.1591V52.1364H158.511C159.892 52.1364 160.727 52.9631 160.727 54.3182C160.727 55.4602 159.892 56.1591 158.511 56.1591H154.25ZM154.25 50.3977V46.75H157.693C159.304 46.75 160.284 47.4233 160.284 48.5227C160.284 49.6903 159.304 50.3977 157.693 50.3977H154.25Z" fill="#656566"/>
</svg>
